<?xml version="1.0" encoding="UTF-8"?>
<svg id="Calque_1" xmlns="http://www.w3.org/2000/svg" xmlns:xlink="http://www.w3.org/1999/xlink" version="1.1" viewBox="0 0 134.2 102.7">
  <!-- Generator: Adobe Illustrator 29.3.1, SVG Export Plug-In . SVG Version: 2.1.0 Build 151)  -->
  <path d="M81,43c7.5-1,19.2-4.9,20.1-13.9.9-9.1-9.6-11.2-16.6-11.4-.2-.4-.6-.6-1.2-.5-7.6,2.1-16.7,5.3-18.1,14.3-1.4,9.3,8.3,12.6,15.8,11.5ZM68.4,28.6c2.8-5.4,8.8-7.4,14.4-9,.2.1.4.2.7.2,6.3,0,19.9,2.4,14.6,12.1-3,5.5-10.3,7.9-16.1,8.8-3.5.6-7.4.8-10.6-1-4.2-2.3-5.1-7.1-3-11.1Z"/>
  <path d="M134,14.8c.1-.7-.2-1.5-1.1-1.8-12.6-3.6-25-7.9-37.1-12.9-.6-.2-1.1-.1-1.4.2-.2,0-.4.1-.6.2-20.6,12.7-42.4,23.4-65.2,31.8-.1,0-.1.1-.2.1h-.3c-.9,0-1.6.7-1.6,1.6v2.3c-3.5,3-6.7,6.3-8.8,10.5-.7,1.3-1.2,2-2.3,3-.5.4-1,.8-1.4,1.3-1.1,1.3-1.1,6.1-2.9,6.2-1.3.1-1.8,1.4-1.4,2.3-.3-.2-.7-.2-1.2-.1-2.6,1-5.3,2-6.9,4.4-.9,1.3-1.2,2.9-1,4.4-.6.6-.9,1.5-.1,2.3,7.8,8.3,15.9,16.2,24.5,23.6,2.4,2.1,12.1,11.1,15.8,7.8.3.1.7.1,1.1-.2,8.6-4.7,17-9.9,24.9-15.6q.1,0,.2.1c1,.2,2,.3,3,.5.9.1,1.7-.2,2-1.1,0-.2.1-.4,0-.6,19.1-15.2,38.3-30.3,57.7-45.2.4-.3.6-.6.7-1,.5-.1.9-.5.9-1.1,1-7.3,2-14.6,2.9-21.9,0-.4,0-.8-.2-1.1ZM30.9,95c-4.6-3.7-9.1-8.8-10.9-10.5-2.6-2.6-5.2-5.2-7.7-7.8-1.4-1.5-10.5-9.2-7.5-11.3.2-.2.4-.4.4-.6,1.3-1,3-1.7,4.1-2.2.5-.2.8-.5.9-.9,10.5,11.3,22.2,21.5,34.8,30.4.3.2.6.2.9.1.2.1.4.1.7,0,.3-.1.7-.3,1-.4.1.3.3.5.7.6.7.2,1.4.6,1.9,1.2-2.5,1.5-5,3-7.5,4.4-.3-.1-.7,0-1,.3l-.2.2c-.8-.7-2.3-.7-2.7.7,0,.1-.1.2-.1.2-.9-.1-2-.5-3.1-1.1-1.5-1-3.2-2.2-4.7-3.3ZM50,90.7c5.7-2.5,11-5.6,15.9-9.4h.1v1.6c-4.6,3.3-9.2,6.4-14,9.4-.6-.6-1.2-1.2-2-1.6ZM127.4,35.6c-.3.3-.5.8-.4,1.3-19.6,15.2-39.2,30.5-58.8,45.7h0c0-4.1.1-8.2.3-12.4.2-.3.2-.7.1-1.1.1-1.5.2-3.1.3-4.6,11.3-7.4,22.4-15.1,33.3-23.1,9.5-7,19.6-13.9,27.7-22.6-.8,5.7-1.6,11.2-2.5,16.8ZM48.1,89.2c.5-.8.9-1.7.9-2.6,1-.5,1.6-1.5,1.8-2.7v-.3c2.2-.7,4.2-1.9,6-3.5.6-.6.3-1.3-.3-1.7,3.4-2,6.7-4.2,9.9-6.5-.1,1.2-.1,2.5-.2,3.7-4,3-8.3,5.6-12.9,7.6-1.3.6-.2,2.4,1.1,1.8,4.2-1.9,8.1-4.1,11.8-6.8v1.3c-.3-.3-.7-.5-1.2-.1-5.3,4.1-10.9,7.3-16.9,9.8ZM53.5,78.7c.1,0,.2.1.2.1.1.2.3.4.6.5-1.5,1.1-3.1,2-4.9,2.5-12.1-7.7-23.2-16.9-33-27.3,1.2-.4,2.4-1,3.4-1.9,10.3,9.9,21.5,18.7,33.7,26.1ZM31.7,38.9c.2-.1.3-.2.4-.4,10.6,9.4,21.8,18.3,33.3,26.6-.2,0-.4,0-.6.1-2.4,1.3-4.7,2.6-7.1,4-11.9-7.9-22.9-16.8-33.1-26.6,2.5-1,4.9-2.2,7.1-3.7ZM57.6,74.8v-.6h0c.4.1.8-.2,1.1-.4.3-.2.5-.5.6-.9,0-.2.1-.3.1-.5,0-.4.2-.4-.2-.2.7-.2.9-1,.6-1.6,2.1-1.2,4.1-2.3,6.2-3.5.5-.3.6-.9.4-1.3.1.1.2.1.3.2h0c-.1,1.1-.2,2.1-.2,3.2-2.9,2.1-5.9,4.1-8.9,6.1-.1-.2,0-.4,0-.5ZM95.1,3.4c11.4,4.4,23,8.6,34.6,12.5-8.5,9.7-19.5,17.1-29.9,24.7-10.8,7.9-21.9,15.5-33.1,22.8-12.2-8.7-23.8-18.1-34.9-28.1,15.4-6,30.3-13.1,44.7-21.2,6.3-3.3,12.5-6.9,18.6-10.7ZM23.1,45.5c.3-.2.5-.5.5-.9,10.2,9.9,21.3,18.7,33.2,26.6.2.1.4.2.6.2h0c0,.3,0,.5-.1.6,0,.3-.1.3-.1,0-.4.2-.7.1-1.1.4-.7.6-.6,1.3-.6,2.1s-.6,1.7-1.7,1.9c-12.2-7.5-23.4-16.4-33.6-26.5.5-.3.9-.7,1.2-1.3.1-.2.6-1.8.8-1.8.5,0,1.1-.6.9-1.3ZM14,60c.5-.3.6-.8.5-1.2.2-.2.3-.5.5-.8.1-.1.1-.2.1-.3.2-.3.4-.6.6-1,9.8,10.4,20.9,19.4,33,27.1h0c-.1.7-.5.9-1,1-.4.1-.8.6-.8,1,.2,1.3-.3,2.4-1.5,3.1-.2.1-.3.2-.4.4-11.9-8.4-22.8-18-32.7-28.6.6-.2,1.2-.4,1.7-.7Z"/>
</svg>