<svg xmlns="http://www.w3.org/2000/svg" width="280.4" height="280.4" viewBox="83.6 1828.2 280.4 280.4"><path fill="#000" d=" M 223.76 1832.90 Q 233.00 1832.90 243.24 1834.25 Q 246.48 1834.68 247.11 1837.36 Q 247.72 1839.94 252.07 1862.63 A 1.18 1.17 2.6 0 0 252.89 1863.52 Q 265.44 1867.19 277.27 1873.58 A 0.96 0.94 -47.4 0 0 278.25 1873.53 Q 287.14 1867.64 299.63 1859.62 C 302.71 1857.64 304.38 1859.66 307.19 1861.87 Q 319.29 1871.38 331.66 1886.64 C 335.00 1890.76 332.94 1892.71 330.32 1896.70 Q 327.00 1901.76 319.04 1913.61 A 1.96 1.95 47.6 0 0 318.95 1915.65 Q 324.99 1926.58 328.87 1938.90 A 1.60 1.59 -2.8 0 0 330.07 1939.98 Q 347.82 1943.66 354.73 1945.25 C 356.38 1945.63 357.57 1946.84 357.88 1948.66 C 359.97 1960.75 359.82 1973.46 358.23 1986.77 C 357.61 1991.96 354.21 1991.83 349.66 1992.79 Q 344.75 1993.83 329.82 1996.99 A 1.32 1.32 0.0 0 0 328.83 1997.89 Q 324.96 2010.37 318.82 2021.50 A 1.48 1.47 -47.8 0 0 318.89 2023.03 Q 329.60 2038.92 332.66 2043.85 Q 334.53 2046.88 332.09 2049.90 Q 318.11 2067.19 304.23 2077.26 Q 302.02 2078.87 299.32 2077.12 Q 285.24 2067.98 278.32 2063.39 A 1.09 1.08 47.5 0 0 277.19 2063.34 Q 265.75 2069.66 252.85 2073.43 A 1.08 1.07 87.5 0 0 252.08 2074.28 Q 248.40 2093.44 247.52 2098.02 C 246.59 2102.81 244.06 2102.51 239.67 2103.05 Q 232.60 2103.92 223.80 2103.92 Q 215.01 2103.92 207.94 2103.05 C 203.55 2102.52 201.02 2102.82 200.08 2098.03 Q 199.20 2093.45 195.52 2074.29 A 1.08 1.07 -87.5 0 0 194.75 2073.44 Q 181.85 2069.67 170.40 2063.36 A 1.09 1.08 -47.5 0 0 169.27 2063.41 Q 162.35 2068.00 148.28 2077.14 Q 145.58 2078.89 143.37 2077.28 Q 129.48 2067.22 115.50 2049.93 Q 113.06 2046.91 114.93 2043.88 Q 117.99 2038.95 128.69 2023.06 A 1.48 1.47 47.8 0 0 128.76 2021.53 Q 122.62 2010.40 118.74 1997.92 A 1.32 1.32 0.0 0 0 117.75 1997.02 Q 102.82 1993.87 97.91 1992.83 C 93.36 1991.87 89.96 1992.00 89.34 1986.81 C 87.75 1973.50 87.59 1960.79 89.68 1948.70 C 89.99 1946.88 91.18 1945.67 92.83 1945.29 Q 99.74 1943.70 117.49 1940.01 A 1.60 1.59 2.8 0 0 118.69 1938.93 Q 122.56 1926.61 128.60 1915.68 A 1.96 1.95 -47.7 0 0 128.51 1913.64 Q 120.54 1901.79 117.22 1896.73 C 114.60 1892.74 112.54 1890.79 115.88 1886.67 Q 128.24 1871.41 140.34 1861.90 C 143.15 1859.68 144.82 1857.66 147.90 1859.64 Q 160.39 1867.66 169.29 1873.55 A 0.96 0.94 47.4 0 0 170.27 1873.60 Q 182.09 1867.20 194.64 1863.53 A 1.18 1.17 -2.6 0 0 195.46 1862.64 Q 199.80 1839.95 200.41 1837.37 Q 201.04 1834.69 204.28 1834.26 Q 214.52 1832.90 223.76 1832.90 Z M 95.70 1968.45 Q 95.70 1975.90 96.76 1984.21 A 0.67 0.66 2.6 0 0 97.28 1984.77 Q 109.89 1987.56 121.48 1989.87 Q 124.49 1990.46 125.12 1992.65 Q 129.47 2007.92 136.67 2020.21 Q 138.06 2022.59 136.46 2025.01 Q 123.14 2045.14 122.79 2045.68 A 1.06 1.06 0.0 0 0 122.86 2046.93 Q 132.75 2059.12 145.05 2069.28 A 0.91 0.90 -40.9 0 0 146.11 2069.35 Q 153.63 2064.61 166.14 2056.25 C 167.52 2055.33 169.77 2054.37 171.09 2055.14 Q 184.68 2063.02 199.23 2066.82 Q 201.98 2067.54 202.58 2070.84 Q 204.98 2083.96 207.12 2094.86 A 0.64 0.63 -1.9 0 0 207.66 2095.36 Q 223.68 2097.43 239.87 2095.35 A 0.60 0.59 1.3 0 0 240.37 2094.88 L 245.26 2069.72 A 3.59 3.59 0.0 0 1 247.89 2066.94 Q 261.69 2063.38 274.71 2056.09 C 277.32 2054.63 278.77 2054.52 281.18 2056.12 Q 295.01 2065.31 301.35 2069.37 A 0.81 0.81 0.0 0 0 302.30 2069.32 Q 314.38 2059.53 324.49 2047.16 A 1.43 1.42 -42.1 0 0 324.58 2045.48 Q 318.28 2035.90 312.73 2027.56 C 310.97 2024.91 309.40 2022.71 310.82 2020.26 Q 318.15 2007.65 321.94 1994.07 C 322.73 1991.24 323.73 1990.35 326.51 1989.78 Q 339.10 1987.20 350.09 1984.86 A 0.84 0.83 -1.8 0 0 350.74 1984.16 Q 351.80 1977.15 351.80 1968.46 Q 351.80 1959.77 350.75 1952.75 A 0.84 0.83 1.8 0 0 350.09 1952.05 Q 339.10 1949.71 326.51 1947.13 C 323.73 1946.56 322.73 1945.67 321.94 1942.84 Q 318.15 1929.26 310.82 1916.65 C 309.40 1914.20 310.97 1912.00 312.73 1909.35 Q 318.28 1901.01 324.58 1891.43 A 1.43 1.42 42.1 0 0 324.49 1889.75 Q 314.38 1877.38 302.30 1867.59 A 0.81 0.81 0.0 0 0 301.35 1867.54 Q 295.01 1871.60 281.18 1880.79 C 278.77 1882.39 277.32 1882.28 274.71 1880.82 Q 261.69 1873.53 247.89 1869.97 A 3.59 3.59 0.0 0 1 245.26 1867.19 L 240.37 1842.03 A 0.60 0.59 -1.3 0 0 239.87 1841.56 Q 223.68 1839.48 207.66 1841.55 A 0.64 0.63 1.9 0 0 207.12 1842.05 Q 204.98 1852.95 202.58 1866.07 Q 201.98 1869.37 199.23 1870.09 Q 184.68 1873.89 171.09 1881.77 C 169.77 1882.54 167.52 1881.58 166.14 1880.66 Q 153.63 1872.30 146.11 1867.56 A 0.91 0.90 40.9 0 0 145.05 1867.63 Q 132.75 1877.79 122.86 1889.98 A 1.06 1.06 0.0 0 0 122.79 1891.23 Q 123.14 1891.77 136.46 1911.90 Q 138.06 1914.32 136.67 1916.70 Q 129.47 1928.99 125.12 1944.26 Q 124.49 1946.45 121.48 1947.04 Q 109.89 1949.35 97.28 1952.14 A 0.67 0.66 -2.6 0 0 96.76 1952.70 Q 95.70 1961.01 95.70 1968.45 Z"></path><path fill="#000" d=" M 303.71 1968.47 A 79.94 79.94 0.0 0 1 223.77 2048.41 A 79.94 79.94 0.0 0 1 143.83 1968.47 A 79.94 79.94 0.0 0 1 223.77 1888.53 A 79.94 79.94 0.0 0 1 303.71 1968.47 Z M 296.14 1968.46 A 72.38 72.38 0.0 0 0 223.76 1896.08 A 72.38 72.38 0.0 0 0 151.38 1968.46 A 72.38 72.38 0.0 0 0 223.76 2040.84 A 72.38 72.38 0.0 0 0 296.14 1968.46 Z"></path><path fill="#000" d=" M 283.62 1968.48 A 59.83 59.83 0.0 0 1 223.79 2028.31 A 59.83 59.83 0.0 0 1 163.96 1968.48 A 59.83 59.83 0.0 0 1 223.79 1908.65 A 59.83 59.83 0.0 0 1 283.62 1968.48 Z M 276.05 1968.50 A 52.29 52.29 0.0 0 0 223.76 1916.21 A 52.29 52.29 0.0 0 0 171.47 1968.50 A 52.29 52.29 0.0 0 0 223.76 2020.79 A 52.29 52.29 0.0 0 0 276.05 1968.50 Z"></path></svg>
