<svg xmlns="http://www.w3.org/2000/svg" width="296.3" height="296.3" viewBox="75.6 -2.2 296.3 296.3"><path fill="#000" d=" M 331.84 93.02 Q 330.89 93.35 318.72 97.69 Q 304.31 102.84 289.30 100.67 A 0.38 0.38 0.0 0 0 288.86 101.05 L 288.86 200.19 A 0.54 0.54 0.0 0 0 289.52 200.72 Q 298.50 198.65 304.92 204.98 C 309.97 209.95 310.27 218.63 305.32 224.37 Q 303.68 226.26 298.42 229.30 Q 263.01 249.80 235.24 265.55 C 219.89 274.26 210.10 280.13 194.26 278.06 Q 186.92 277.10 169.19 272.81 C 150.36 268.25 133.89 263.94 115.92 261.13 A 0.54 0.53 -86.6 0 0 115.30 261.69 Q 115.72 269.84 110.16 273.04 Q 107.54 274.56 98.60 274.28 Q 95.35 274.17 83.20 274.28 A 3.60 3.59 89.7 0 1 79.57 270.68 L 79.57 270.37 A 3.36 3.36 0.0 0 1 82.91 267.01 Q 90.70 266.95 103.75 267.05 C 107.44 267.08 107.80 265.59 107.81 262.25 Q 107.87 226.32 107.80 198.77 Q 107.79 196.80 105.08 195.82 A 0.82 0.75 -33.4 0 0 104.83 195.78 L 82.90 195.66 A 3.27 3.27 0.0 0 1 79.65 192.39 L 79.65 191.89 A 3.40 3.39 -0.1 0 1 83.04 188.50 L 106.40 188.45 A 1.40 1.26 48.1 0 1 106.68 188.48 Q 114.44 190.45 115.18 198.56 A 0.68 0.67 -12.9 0 0 116.09 199.13 C 128.90 194.27 141.29 189.68 155.12 190.95 A 0.44 0.44 0.0 0 0 155.60 190.51 L 155.60 92.37 A 0.61 0.60 90.0 0 0 155.00 91.76 Q 144.33 91.89 139.81 82.82 C 136.41 76.00 140.26 67.68 146.68 63.96 Q 155.61 58.78 219.59 22.08 C 230.91 15.60 241.34 11.68 254.61 13.69 Q 263.36 15.01 281.99 19.78 Q 306.74 26.12 331.65 31.03 A 0.63 0.63 0.0 0 0 332.39 30.52 Q 332.55 29.57 332.57 27.58 C 332.61 24.02 334.93 20.46 337.82 18.74 Q 339.98 17.45 345.11 17.51 Q 354.55 17.61 364.04 17.50 A 3.76 3.75 89.2 0 1 367.84 21.20 L 367.84 21.34 A 3.60 3.60 0.0 0 1 364.21 25.00 Q 349.18 24.89 342.53 25.06 Q 339.85 25.13 339.83 27.80 Q 339.69 47.72 339.83 93.99 C 339.84 96.06 341.45 96.41 343.29 96.42 Q 353.90 96.46 364.23 96.39 A 3.66 3.66 0.0 0 1 367.91 99.94 L 367.91 100.11 A 3.41 3.41 0.0 0 1 364.56 103.63 Q 364.53 103.63 341.73 103.59 C 336.02 103.58 332.83 99.09 332.43 93.41 A 0.45 0.45 0.0 0 0 331.84 93.02 Z M 332.05 38.88 Q 302.09 32.60 270.99 24.73 Q 267.74 23.91 258.18 21.89 C 246.82 19.49 237.60 20.70 227.86 26.12 Q 195.98 43.87 150.43 70.40 C 142.70 74.91 146.15 85.16 154.91 84.08 Q 157.64 83.74 158.60 83.38 Q 181.91 74.60 207.57 63.02 A 2.05 2.05 0.0 0 0 208.55 62.10 Q 213.49 52.73 224.50 52.70 Q 246.13 52.64 268.29 52.61 A 3.57 3.57 0.0 0 1 271.86 56.28 L 271.86 56.42 A 3.70 3.70 0.0 0 1 268.13 60.02 Q 245.09 59.84 226.27 60.01 C 221.56 60.06 217.01 60.93 215.60 65.52 C 213.34 72.93 219.89 78.43 226.79 78.67 C 243.33 79.26 254.86 78.71 267.22 84.53 Q 279.57 90.35 283.02 91.49 Q 298.60 96.62 314.70 91.14 Q 315.91 90.73 331.89 85.15 A 0.76 0.76 0.0 0 0 332.40 84.43 L 332.40 39.30 A 0.44 0.43 5.8 0 0 332.05 38.88 Z M 196.78 75.61 A 0.31 0.31 0.0 0 0 196.90 76.21 L 209.27 76.21 A 0.31 0.31 0.0 0 0 209.56 75.78 L 207.81 71.47 A 0.31 0.31 0.0 0 0 207.40 71.30 L 196.78 75.61 Z M 162.87 191.75 A 0.66 0.65 7.5 0 0 163.36 192.38 Q 169.08 193.86 173.02 195.76 C 182.35 200.27 189.90 203.88 199.05 204.52 Q 203.38 204.82 218.24 205.77 C 227.82 206.39 237.00 209.37 240.02 219.44 A 0.61 0.60 -19.4 0 0 240.83 219.82 L 280.88 203.57 A 1.16 1.15 79.1 0 0 281.60 202.50 L 281.60 99.31 A 0.65 0.65 0.0 0 0 281.18 98.70 Q 273.22 95.56 267.46 92.72 Q 260.63 89.34 256.35 88.38 C 246.91 86.27 235.31 86.46 228.32 86.12 Q 222.59 85.83 217.40 83.84 A 4.82 4.68 54.7 0 0 215.69 83.52 L 178.61 83.52 A 1.89 1.82 -54.8 0 0 177.93 83.65 L 163.38 89.55 A 0.82 0.82 0.0 0 0 162.87 90.31 L 162.87 191.75 Z M 115.78 253.82 Q 134.53 256.80 150.55 260.70 Q 173.44 266.26 181.02 267.96 Q 195.54 271.23 199.01 271.20 Q 210.15 271.13 219.44 265.92 Q 256.21 245.31 294.18 223.11 C 298.91 220.35 304.07 216.81 299.97 210.77 C 297.25 206.76 292.08 207.16 288.00 208.75 Q 269.84 215.82 240.74 227.99 A 1.85 1.81 3.9 0 0 239.87 228.73 C 239.02 230.13 238.36 231.78 237.32 233.04 C 233.18 238.06 228.55 239.29 221.57 239.28 Q 201.98 239.23 179.33 239.30 A 3.54 3.54 0.0 0 1 175.78 235.86 L 175.78 235.60 A 3.42 3.41 -0.9 0 1 179.20 232.08 Q 219.12 232.08 222.25 232.10 C 236.80 232.20 236.13 215.37 222.98 213.76 Q 213.49 212.59 201.70 212.09 Q 192.83 211.70 184.75 208.89 C 178.59 206.74 170.41 202.16 163.88 200.16 Q 149.32 195.71 134.85 200.42 Q 123.71 204.04 115.53 207.30 A 0.35 0.34 -11.5 0 0 115.31 207.62 L 115.31 253.27 A 0.56 0.55 -85.8 0 0 115.78 253.82 Z"></path><path fill="#000" d=" M 222.41 114.09 Q 223.39 114.10 224.36 114.52 Q 248.16 124.95 262.01 130.92 C 264.99 132.20 265.68 132.99 265.71 136.42 Q 265.74 140.11 265.70 154.46 Q 265.65 168.81 265.59 172.51 C 265.54 175.93 264.84 176.72 261.85 177.98 Q 247.96 183.86 224.10 194.14 Q 223.13 194.55 222.15 194.55 Q 221.17 194.55 220.21 194.12 Q 196.41 183.69 182.56 177.72 C 179.58 176.44 178.89 175.65 178.86 172.23 Q 178.82 168.53 178.87 154.18 Q 178.92 139.83 178.98 136.13 C 179.03 132.71 179.73 131.92 182.71 130.66 Q 196.60 124.78 220.47 114.51 Q 221.44 114.09 222.41 114.09 Z M 192.79 134.50 A 0.40 0.40 0.0 0 0 192.79 135.24 L 222.06 147.97 A 0.40 0.40 0.0 0 0 222.38 147.97 L 251.69 135.21 A 0.40 0.40 0.0 0 0 251.69 134.47 L 222.42 121.75 A 0.40 0.40 0.0 0 0 222.10 121.75 L 192.79 134.50 Z M 186.19 171.00 A 0.31 0.31 0.0 0 0 186.38 171.28 L 218.25 185.14 A 0.31 0.31 0.0 0 0 218.68 184.86 L 218.68 154.65 A 0.31 0.31 0.0 0 0 218.49 154.37 L 186.62 140.51 A 0.31 0.31 0.0 0 0 186.19 140.79 L 186.19 171.00 Z M 225.83 184.92 A 0.31 0.31 0.0 0 0 226.26 185.20 L 258.07 171.35 A 0.31 0.31 0.0 0 0 258.26 171.07 L 258.26 140.82 A 0.31 0.31 0.0 0 0 257.83 140.54 L 226.02 154.39 A 0.31 0.31 0.0 0 0 225.83 154.67 L 225.83 184.92 Z"></path></svg>
